<svg width="55" height="51" viewBox="0 0 55 51" fill="none" xmlns="http://www.w3.org/2000/svg">
<path d="M36.12 18.50 L36.12 28.25 C36.12 28.68 35.95 29.09 35.65 29.40 C35.34 29.70 34.93 29.88 34.50 29.88 C34.07 29.88 33.66 29.70 33.35 29.40 C33.05 29.09 32.88 28.68 32.88 28.25 L32.88 22.42 L22.65 32.65 C22.50 32.80 22.32 32.92 22.12 33.00 C21.92 33.08 21.71 33.13 21.50 33.13 C21.29 33.13 21.08 33.08 20.88 33.00 C20.68 32.92 20.50 32.80 20.35 32.65 C20.20 32.50 20.08 32.32 20.00 32.12 C19.92 31.92 19.87 31.71 19.87 31.50 C19.87 31.29 19.92 31.08 20.00 30.88 C20.08 30.68 20.20 30.50 20.35 30.35 L30.58 20.12 L24.75 20.12 C24.32 20.12 23.91 19.95 23.60 19.65 C23.30 19.34 23.12 18.93 23.12 18.50 C23.12 18.07 23.30 17.66 23.60 17.35 C23.91 17.05 24.32 16.88 24.75 16.88 L34.50 16.88 C34.93 16.88 35.34 17.05 35.65 17.35 C35.95 17.66 36.12 18.07 36.12 18.50 M49.12 25.00 C49.12 29.18 47.89 33.26 45.56 36.74 C43.24 40.21 39.94 42.92 36.08 44.52 C32.22 46.12 27.98 46.53 23.88 45.72 C19.78 44.90 16.02 42.89 13.06 39.94 C10.11 36.98 8.10 33.22 7.28 29.12 C6.47 25.02 6.88 20.78 8.48 16.92 C10.08 13.06 12.79 9.76 16.26 7.44 C19.74 5.11 23.82 3.88 28.00 3.88 C33.60 3.88 38.97 6.11 42.93 10.07 C46.89 14.03 49.12 19.40 49.12 25.00 M45.88 25.00 C45.88 21.46 44.83 18.01 42.86 15.07 C40.90 12.13 38.11 9.84 34.84 8.49 C31.57 7.13 27.98 6.78 24.51 7.47 C21.05 8.16 17.86 9.86 15.36 12.36 C12.86 14.86 11.16 18.05 10.47 21.51 C9.78 24.98 10.13 28.57 11.49 31.84 C12.84 35.11 15.13 37.90 18.07 39.86 C21.01 41.83 24.46 42.88 28.00 42.88 C32.74 42.87 37.28 40.98 40.63 37.63 C43.98 34.28 45.87 29.74 45.88 25.00" fill="#1FCCE8"/>
</svg>
