<svg width="29" height="27" viewBox="0 0 29 27" fill="none" xmlns="http://www.w3.org/2000/svg">
<path d="M1.85601 26.688C0.576012 26.688 1.21593e-05 26.304 1.21593e-05 24.768C1.21593e-05 23.296 1.21593e-05 23.232 1.02401 22.208C2.24001 20.992 5.63201 18.816 9.02401 16.576C17.28 11.264 22.848 7.35998 25.152 3.83997L25.984 2.62397L24.896 2.81598C22.016 3.26397 18.688 5.43998 15.296 7.99998C14.528 8.57598 14.144 8.83198 14.08 8.83198C13.632 8.83198 13.12 9.40798 13.056 9.98397C12.992 10.368 12.736 10.56 12.16 10.56C11.84 10.56 11.584 10.496 11.392 10.304C11.072 10.048 10.944 9.72798 10.944 9.34398C10.624 6.91198 19.328 1.53598 22.592 0.511974C23.36 0.319973 24.96 -2.67029e-05 25.92 -2.67029e-05C26.432 -2.67029e-05 26.688 0.127975 26.624 0.319973C26.56 0.575974 26.688 0.703976 27.008 0.703976C27.84 0.703976 28.992 2.55997 28.608 2.55997C28.48 2.55997 28.352 2.75198 28.288 3.13597C27.968 4.60798 26.816 6.27197 24.832 8.12798C22.848 9.98397 20.8 11.648 18.56 13.184C16.384 14.72 15.104 15.552 14.784 15.68C13.824 16 13.76 16.448 13.056 16.704C12.736 16.832 12.288 17.152 11.712 17.6C11.072 18.176 10.496 18.56 9.92001 18.88C9.08801 19.392 8.57601 19.712 8.38401 19.904C8.12801 20.16 7.16801 20.736 6.72001 20.992C5.88801 21.44 5.31201 21.824 5.05601 22.08C4.73601 22.4 4.09601 22.464 4.16001 22.784C4.16001 22.976 3.71201 23.168 3.64801 23.36C3.64801 23.424 3.96801 23.488 4.67201 23.488L10.176 23.296C12.416 23.168 14.144 23.104 15.232 23.104C17.536 23.104 18.432 23.36 18.624 23.872C18.944 24.512 19.84 24 19.968 25.472C20.032 25.92 20.032 25.984 19.52 25.984C19.008 25.984 17.408 25.792 15.104 25.792C12.224 25.792 8.83201 25.984 4.92801 26.432C3.20001 26.624 2.17601 26.688 1.85601 26.688ZM19.2 11.136C19.2 10.944 18.752 11.008 18.752 11.328C18.752 11.584 19.264 11.328 19.2 11.136ZM16.192 13.632L16.768 13.12H16.128C15.424 13.184 13.888 14.144 14.08 14.4C14.336 14.592 15.488 14.144 16.192 13.632ZM11.84 15.296C11.84 15.104 11.776 15.04 11.712 15.04C11.52 15.04 11.328 15.552 11.584 15.552C11.776 15.552 11.84 15.488 11.84 15.296ZM5.05601 20.544C5.50401 20.096 5.82401 19.904 6.08001 19.904C6.40001 19.904 6.72001 19.392 7.04001 19.456L7.23201 19.52C7.29601 19.52 7.42401 19.072 8.12801 18.752C8.83201 18.304 8.83201 17.6 9.34401 17.408L10.624 16.832C11.072 16.64 11.904 16.256 12.224 16.192C12.544 16.128 12.736 16 12.8 15.68C12.864 15.104 12.352 15.104 12.352 15.552C12.352 15.616 12.096 15.68 11.584 15.68C10.944 15.68 9.53601 16.512 7.42401 18.176C6.08001 19.2 5.31201 19.712 5.05601 19.712C4.99201 19.712 4.73601 19.968 4.22401 20.48C3.77601 20.928 3.45601 21.248 3.26401 21.312C2.75201 21.568 3.45601 22.144 5.05601 20.544Z" fill="white"/>
</svg>
